<svg xmlns="http://www.w3.org/2000/svg" viewBox="0 0 200 200" width="200" height="200">
  <defs>
    <radialGradient id="dbg" cx="50%" cy="40%" r="60%">
      <stop offset="0%" stop-color="#1a1428"/>
      <stop offset="100%" stop-color="#051424"/>
    </radialGradient>
    <radialGradient id="halo" cx="50%" cy="38%" r="30%">
      <stop offset="0%" stop-color="#f59e0b" stop-opacity="0.25"/>
      <stop offset="100%" stop-color="transparent"/>
    </radialGradient>
  </defs>
  <rect width="200" height="200" fill="url(#dbg)"/>
  <rect width="200" height="200" fill="url(#halo)"/>
  <!-- Divine rays -->
  <g opacity="0.15" stroke="#f59e0b" stroke-width="1">
    <line x1="100" y1="40" x2="100" y2="5"/>
    <line x1="100" y1="40" x2="130" y2="12"/>
    <line x1="100" y1="40" x2="152" y2="28"/>
    <line x1="100" y1="40" x2="165" y2="52"/>
    <line x1="100" y1="40" x2="70" y2="12"/>
    <line x1="100" y1="40" x2="48" y2="28"/>
    <line x1="100" y1="40" x2="35" y2="52"/>
  </g>
  <!-- Halo ring -->
  <circle cx="100" cy="65" r="28" fill="none" stroke="#f59e0b" stroke-width="2.5" opacity="0.7"/>
  <circle cx="100" cy="65" r="32" fill="none" stroke="#d97707" stroke-width="0.8" opacity="0.4"/>
  <!-- Robe body -->
  <path d="M70 115 Q65 145 58 185 L142 185 Q135 145 130 115Z" fill="#2a1a4a"/>
  <path d="M72 115 Q67 145 60 185 L140 185 Q133 145 128 115Z" fill="none" stroke="#4a2a7a" stroke-width="1"/>
  <!-- Robe decoration -->
  <path d="M86 125 L100 185 L114 125" stroke="#d97707" stroke-width="1.5" fill="none" opacity="0.5"/>
  <line x1="70" y1="148" x2="130" y2="148" stroke="#4a2a7a" stroke-width="1" opacity="0.6"/>
  <line x1="64" y1="165" x2="136" y2="165" stroke="#4a2a7a" stroke-width="1" opacity="0.5"/>
  <!-- Shoulders / upper body -->
  <path d="M72 115 Q60 105 62 92 Q65 80 75 78 Q100 72 125 78 Q135 80 138 92 Q140 105 128 115Z" fill="#3a2255"/>
  <!-- Neck -->
  <rect x="93" y="92" width="14" height="12" rx="3" fill="#c8a87a"/>
  <!-- Head -->
  <ellipse cx="100" cy="72" rx="20" ry="22" fill="#c8a87a"/>
  <!-- Face -->
  <ellipse cx="93" cy="70" rx="3" ry="3.5" fill="#2a1a0a" opacity="0.8"/>
  <ellipse cx="107" cy="70" rx="3" ry="3.5" fill="#2a1a0a" opacity="0.8"/>
  <!-- Eyes glow -->
  <ellipse cx="93" cy="70" rx="2" ry="2.5" fill="#f59e0b" opacity="0.6"/>
  <ellipse cx="107" cy="70" rx="2" ry="2.5" fill="#f59e0b" opacity="0.6"/>
  <!-- Nose -->
  <path d="M99 75 Q100 78 101 75" stroke="#a88060" stroke-width="1.5" fill="none"/>
  <!-- Mouth -->
  <path d="M94 82 Q100 86 106 82" stroke="#a06040" stroke-width="1.5" fill="none"/>
  <!-- Hair -->
  <path d="M80 60 Q82 45 100 43 Q118 45 120 60 Q118 50 100 48 Q82 50 80 60Z" fill="#2a1a08"/>
  <!-- Crown / tiara -->
  <path d="M80 56 L85 44 L90 52 L95 40 L100 50 L105 40 L110 52 L115 44 L120 56" stroke="#d97707" stroke-width="2.5" fill="none" stroke-linejoin="round"/>
  <circle cx="100" cy="50" r="3" fill="#60a5fa"/>
  <circle cx="90" cy="52" r="2" fill="#d97707"/>
  <circle cx="110" cy="52" r="2" fill="#d97707"/>
  <!-- Arms with sleeves -->
  <path d="M72 112 Q48 120 40 140 Q48 135 58 138" stroke="#3a2255" stroke-width="12" fill="none" stroke-linecap="round"/>
  <path d="M128 112 Q152 120 160 140 Q152 135 142 138" stroke="#3a2255" stroke-width="12" fill="none" stroke-linecap="round"/>
  <!-- Hands holding orb -->
  <ellipse cx="40" cy="143" rx="8" ry="7" fill="#c8a87a"/>
  <ellipse cx="160" cy="143" rx="8" ry="7" fill="#c8a87a"/>
  <!-- Divine orb -->
  <circle cx="100" cy="108" r="16" fill="#1a1428" opacity="0.8"/>
  <circle cx="100" cy="108" r="14" fill="none" stroke="#d97707" stroke-width="1.5" opacity="0.7"/>
  <circle cx="100" cy="108" r="8" fill="#d97707" opacity="0.2"/>
  <circle cx="100" cy="108" r="4" fill="#f59e0b" opacity="0.7"/>
  <circle cx="97" cy="105" r="2" fill="white" opacity="0.5"/>
  <!-- Stars -->
  <circle cx="22" cy="30" r="1" fill="white" opacity="0.5"/>
  <circle cx="178" cy="25" r="1" fill="white" opacity="0.4"/>
  <circle cx="15" cy="70" r="1" fill="#f59e0b" opacity="0.4"/>
  <circle cx="185" cy="80" r="1" fill="#f59e0b" opacity="0.4"/>
</svg>
